<svg width="25" height="27" viewBox="0 0 25 27" fill="none" xmlns="http://www.w3.org/2000/svg">
<path d="M19.3574 3.89362H5.20574C4.09383 3.89362 3.18408 4.85107 3.18408 6.02128V20.9149C3.18408 22.0851 4.09383 23.0426 5.20574 23.0426H19.3574C20.4693 23.0426 21.379 22.0851 21.379 20.9149V6.02128C21.379 4.85107 20.4693 3.89362 19.3574 3.89362ZM17.3357 20.9149H7.2274V20.6596C8.66278 19.4468 10.4216 18.7872 12.2816 18.7872C14.1415 18.7872 15.9003 19.4468 17.3357 20.6596V20.9149ZM19.3574 19.7021C17.5379 17.8192 15.0411 16.6596 12.2816 16.6596C9.52199 16.6596 7.02524 17.8192 5.20574 19.7021V6.02128H19.3574V19.7021ZM12.2816 14.5319C14.2325 14.5319 15.8195 12.8617 15.8195 10.8085C15.8195 8.75532 14.2325 7.08511 12.2816 7.08511C10.3307 7.08511 8.74365 8.75532 8.74365 10.8085C8.74365 12.8617 10.3307 14.5319 12.2816 14.5319ZM12.2816 9.21277C13.1205 9.21277 13.7978 9.92554 13.7978 10.8085C13.7978 11.6915 13.1205 12.4043 12.2816 12.4043C11.4426 12.4043 10.7653 11.6915 10.7653 10.8085C10.7653 9.92554 11.4426 9.21277 12.2816 9.21277Z" fill="#C7C4DC"/>
</svg>
