<svg width="19" height="15" viewBox="0 0 19 15" fill="none" xmlns="http://www.w3.org/2000/svg">
<path d="M1.48438 0.59375C0.99082 0.59375 0.59375 0.949023 0.59375 1.39062V2.98438C0.59375 3.42598 0.99082 3.78125 1.48438 3.78125H3.26562C3.75918 3.78125 4.15625 3.42598 4.15625 2.98438V1.39062C4.15625 0.949023 3.75918 0.59375 3.26562 0.59375H1.48438ZM7.125 1.125C6.46816 1.125 5.9375 1.5998 5.9375 2.1875C5.9375 2.7752 6.46816 3.25 7.125 3.25H17.8125C18.4693 3.25 19 2.7752 19 2.1875C19 1.5998 18.4693 1.125 17.8125 1.125H7.125ZM7.125 6.4375C6.46816 6.4375 5.9375 6.9123 5.9375 7.5C5.9375 8.0877 6.46816 8.5625 7.125 8.5625H17.8125C18.4693 8.5625 19 8.0877 19 7.5C19 6.9123 18.4693 6.4375 17.8125 6.4375H7.125ZM7.125 11.75C6.46816 11.75 5.9375 12.2248 5.9375 12.8125C5.9375 13.4002 6.46816 13.875 7.125 13.875H17.8125C18.4693 13.875 19 13.4002 19 12.8125C19 12.2248 18.4693 11.75 17.8125 11.75H7.125ZM0.59375 6.70312V8.29688C0.59375 8.73848 0.99082 9.09375 1.48438 9.09375H3.26562C3.75918 9.09375 4.15625 8.73848 4.15625 8.29688V6.70312C4.15625 6.26152 3.75918 5.90625 3.26562 5.90625H1.48438C0.99082 5.90625 0.59375 6.26152 0.59375 6.70312ZM1.48438 11.2188C0.99082 11.2188 0.59375 11.574 0.59375 12.0156V13.6094C0.59375 14.051 0.99082 14.4062 1.48438 14.4062H3.26562C3.75918 14.4062 4.15625 14.051 4.15625 13.6094V12.0156C4.15625 11.574 3.75918 11.2188 3.26562 11.2188H1.48438Z" fill="#C7C4DC"/>
</svg>
