<svg width="259" height="62" viewBox="0 0 259 62" fill="none" xmlns="http://www.w3.org/2000/svg">
<path d="M21.6279 46H11.3477L0.642578 5.21875H12.1123L18.8809 34.1621L24.8848 5.21875H35.1934L41.7637 34.8984L49.1553 5.21875H56.0938L44.2275 46H33.9189L28.1699 19.9453L21.6279 46ZM91.7773 46H82.2051V42.0918C81.0723 43.64 79.7035 44.7917 78.0986 45.5469C76.5127 46.2832 74.7663 46.6514 72.8594 46.6514C70.3672 46.6514 68.1393 46.2077 66.1758 45.3203C64.2122 44.4329 62.5508 43.2246 61.1914 41.6953C59.832 40.1471 58.7936 38.3346 58.0762 36.2578C57.3587 34.181 57 31.9531 57 29.5742C57 27.1953 57.3587 24.9674 58.0762 22.8906C58.7936 20.8138 59.832 19.0107 61.1914 17.4814C62.5508 15.9333 64.2122 14.7155 66.1758 13.8281C68.1393 12.9408 70.3672 12.4971 72.8594 12.4971C74.1243 12.4971 75.3232 12.6859 76.4561 13.0635C77.6077 13.4411 78.6556 13.9792 79.5996 14.6777C80.5625 15.3574 81.4027 16.1882 82.1201 17.1699C82.8564 18.1328 83.4323 19.209 83.8477 20.3984L88.0957 13.29H91.7773V46ZM82.1484 29.5742C82.1484 28.7246 82.1012 27.8278 82.0068 26.8838C81.9313 25.9398 81.7897 25.0052 81.582 24.0801C81.3743 23.1549 81.0817 22.277 80.7041 21.4463C80.3454 20.5967 79.8734 19.8509 79.2881 19.209C78.7217 18.5482 78.0326 18.029 77.2207 17.6514C76.4089 17.2738 75.4648 17.085 74.3887 17.085C73.3125 17.085 72.3779 17.2832 71.585 17.6797C70.792 18.0573 70.1123 18.5765 69.5459 19.2373C68.9795 19.8792 68.5075 20.625 68.1299 21.4746C67.7712 22.3242 67.488 23.2116 67.2803 24.1367C67.0726 25.0618 66.9215 25.9964 66.8271 26.9404C66.7516 27.8656 66.7139 28.7435 66.7139 29.5742C66.7139 30.4049 66.7516 31.2923 66.8271 32.2363C66.9215 33.1803 67.0726 34.1149 67.2803 35.04C67.488 35.9652 67.7712 36.8525 68.1299 37.7021C68.5075 38.5518 68.9795 39.307 69.5459 39.9678C70.1123 40.6097 70.792 41.1289 71.585 41.5254C72.3779 41.903 73.3125 42.0918 74.3887 42.0918C75.3704 42.0918 76.2389 41.8936 76.9941 41.4971C77.7682 41.0817 78.4385 40.5342 79.0049 39.8545C79.5902 39.1748 80.0811 38.4007 80.4775 37.5322C80.874 36.6637 81.195 35.7669 81.4404 34.8418C81.6859 33.9167 81.8652 33.001 81.9785 32.0947C82.0918 31.1696 82.1484 30.3294 82.1484 29.5742ZM129.075 13.29L117.181 42.0635C115.821 45.3486 114.301 48.596 112.621 51.8057C110.96 55.0342 109.157 58.1305 107.212 61.0947L103.474 58.8291C103.946 57.9795 104.503 56.9977 105.145 55.8838C105.786 54.7699 106.419 53.6182 107.042 52.4287C107.665 51.2393 108.241 50.0592 108.77 48.8887C109.298 47.737 109.704 46.6797 109.987 45.7168L95.6855 13.29H105.258L114.972 35.4082L122.448 13.29H129.075ZM144.963 46H133.72V5.21875H163.003V10.4297H144.963V23.0322H158.896V28.2148H144.963V46ZM177.871 5.38867C177.871 6.10612 177.729 6.78581 177.446 7.42773C177.182 8.06966 176.814 8.62663 176.342 9.09863C175.87 9.57064 175.313 9.94824 174.671 10.2314C174.029 10.4958 173.349 10.6279 172.632 10.6279C171.914 10.6279 171.235 10.4958 170.593 10.2314C169.97 9.94824 169.422 9.57064 168.95 9.09863C168.478 8.62663 168.101 8.06966 167.817 7.42773C167.553 6.78581 167.421 6.10612 167.421 5.38867C167.421 4.67122 167.553 4.00098 167.817 3.37793C168.101 2.736 168.478 2.17904 168.95 1.70703C169.422 1.23503 169.97 0.866862 170.593 0.602539C171.235 0.319336 171.914 0.177734 172.632 0.177734C173.349 0.177734 174.029 0.319336 174.671 0.602539C175.313 0.866862 175.87 1.23503 176.342 1.70703C176.814 2.17904 177.182 2.736 177.446 3.37793C177.729 4.00098 177.871 4.67122 177.871 5.38867ZM177.446 46H167.846V13.3184H177.446V46ZM218.936 27.252C218.936 29.4609 218.662 31.7643 218.114 34.1621C217.586 36.5599 216.84 38.9105 215.877 41.2139C214.914 43.5173 213.762 45.679 212.422 47.6992C211.081 49.7383 209.609 51.4941 208.004 52.9668L204.407 51.0127C204.917 50.0687 205.398 49.0114 205.852 47.8408C206.305 46.6702 206.711 45.4336 207.069 44.1309C207.447 42.8092 207.777 41.4499 208.061 40.0527C208.363 38.6556 208.608 37.2773 208.797 35.918C209.005 34.5397 209.156 33.2087 209.25 31.9248C209.363 30.6221 209.42 29.4137 209.42 28.2998C209.42 27.5635 209.392 26.7799 209.335 25.9492C209.278 25.0996 209.156 24.2594 208.967 23.4287C208.797 22.5791 208.561 21.7673 208.259 20.9932C207.957 20.2191 207.551 19.5394 207.041 18.9541C206.55 18.3688 205.946 17.8968 205.229 17.5381C204.53 17.1794 203.699 17 202.736 17C201.792 17 200.952 17.2171 200.216 17.6514C199.479 18.0667 198.828 18.6237 198.262 19.3223C197.695 20.002 197.204 20.7855 196.789 21.6729C196.393 22.5602 196.062 23.4759 195.798 24.4199C195.552 25.3451 195.373 26.2607 195.26 27.167C195.146 28.0732 195.09 28.8851 195.09 29.6025V46H185.489V13.29H189.171L193.561 20.9082C194.089 19.6432 194.75 18.4915 195.543 17.4531C196.336 16.4147 197.233 15.5273 198.233 14.791C199.234 14.0547 200.339 13.4883 201.547 13.0918C202.774 12.6953 204.096 12.4971 205.512 12.4971C207.777 12.4971 209.75 12.8652 211.431 13.6016C213.111 14.3379 214.508 15.3669 215.622 16.6885C216.736 17.9912 217.567 19.5488 218.114 21.3613C218.662 23.1549 218.936 25.1185 218.936 27.252ZM258.216 46H254.534L250.286 38.8916C249.871 40.0811 249.295 41.1572 248.559 42.1201C247.841 43.083 247.001 43.9137 246.038 44.6123C245.094 45.292 244.046 45.8206 242.895 46.1982C241.762 46.5758 240.563 46.7646 239.298 46.7646C236.806 46.7646 234.578 46.321 232.614 45.4336C230.651 44.5462 228.989 43.3379 227.63 41.8086C226.271 40.2604 225.232 38.4479 224.515 36.3711C223.797 34.2943 223.438 32.0664 223.438 29.6875C223.438 27.3086 223.797 25.0807 224.515 23.0039C225.232 20.9271 226.271 19.124 227.63 17.5947C228.989 16.0654 230.651 14.8571 232.614 13.9697C234.578 13.0824 236.806 12.6387 239.298 12.6387C241.205 12.6387 242.951 13.0068 244.537 13.7432C246.142 14.4795 247.511 15.6312 248.644 17.1982V1.25391H258.216V46ZM248.587 29.6875C248.587 28.9323 248.53 28.1016 248.417 27.1953C248.304 26.2891 248.124 25.3734 247.879 24.4482C247.633 23.5231 247.312 22.6263 246.916 21.7578C246.52 20.8893 246.029 20.1152 245.443 19.4355C244.877 18.7559 244.207 18.2178 243.433 17.8213C242.677 17.4059 241.809 17.1982 240.827 17.1982C239.751 17.1982 238.816 17.3965 238.023 17.793C237.23 18.1706 236.551 18.6898 235.984 19.3506C235.418 19.9925 234.946 20.7383 234.568 21.5879C234.21 22.4375 233.926 23.3249 233.719 24.25C233.511 25.1751 233.36 26.1097 233.266 27.0537C233.19 27.9788 233.152 28.8568 233.152 29.6875C233.152 30.5182 233.19 31.4056 233.266 32.3496C233.36 33.2747 233.511 34.1999 233.719 35.125C233.926 36.0501 234.21 36.9469 234.568 37.8154C234.946 38.665 235.418 39.4202 235.984 40.0811C236.551 40.723 237.23 41.2422 238.023 41.6387C238.816 42.0163 239.751 42.2051 240.827 42.2051C241.903 42.2051 242.847 42.0163 243.659 41.6387C244.471 41.2611 245.16 40.7513 245.727 40.1094C246.312 39.4486 246.784 38.7028 247.143 37.8721C247.52 37.0225 247.813 36.1351 248.021 35.21C248.228 34.266 248.37 33.3219 248.445 32.3779C248.54 31.4339 248.587 30.5371 248.587 29.6875Z" fill="black"/>
</svg>
